<svg width="100" height="100" viewBox="0 0 100 100" fill="none" xmlns="http://www.w3.org/2000/svg">
<g clip-path="url(#clip0_1403_25640)">
<path d="M69.7918 51.042H30.2085V58.3337H69.7918V51.042Z" fill="white"/>
<path d="M59.3752 63.542H30.2085V70.8337H59.3752V63.542Z" fill="white"/>
<path d="M60.4168 27.0837L71.1564 27.6045L83.3335 27.0837L60.4168 4.16699L59.896 18.1566L60.4168 27.0837Z" fill="#0066DA"/>
<path d="M69.7918 38.542H30.2085V45.8337H69.7918V38.542Z" fill="white"/>
<path d="M60.4165 27.0837V4.16699H22.9165C19.4634 4.16699 16.6665 6.96387 16.6665 10.417V89.5837C16.6665 93.0368 19.4634 95.8337 22.9165 95.8337H77.0832C80.5363 95.8337 83.3332 93.0368 83.3332 89.5837V27.0837H60.4165ZM58.3332 69.792H31.2498V64.5837H58.3332V69.792ZM68.7498 57.292H31.2498V52.0837H68.7498V57.292ZM68.7498 44.792H31.2498V39.5837H68.7498V44.792Z" fill="#2684FC"/>
</g>
<defs>
<clipPath id="clip0_1403_25640">
<rect width="100" height="100" fill="white"/>
</clipPath>
</defs>
</svg>
